<svg xmlns="http://www.w3.org/2000/svg" xmlns:xlink="http://www.w3.org/1999/xlink" viewBox="0 0 1554.62 1678.78"><defs><style>.cls-1,.cls-6{fill:#591451;}.cls-2{fill:url(#Degradado_sin_nombre_74);}.cls-3{fill:#f4d29a;}.cls-4{fill:#e5bc7f;}.cls-5{fill:#f0f4f7;}.cls-6{font-size:383.5px;font-family:BloodLust, Blood Lust;}</style><linearGradient id="Degradado_sin_nombre_74" x1="778.36" y1="892.5" x2="778.36" gradientUnits="userSpaceOnUse"><stop offset="0" stop-color="#e21352"/><stop offset="0.06" stop-color="#c51446"/><stop offset="0.16" stop-color="#9c1636"/><stop offset="0.27" stop-color="#791728"/><stop offset="0.38" stop-color="#5d181d"/><stop offset="0.5" stop-color="#471914"/><stop offset="0.64" stop-color="#371a0e"/><stop offset="0.79" stop-color="#2e1a0a"/><stop offset="1" stop-color="#2b1a09"/></linearGradient></defs><g id="Capa_2" data-name="Capa 2"><g id="Capa_1-2" data-name="Capa 1"><path id="path172366-5" class="cls-1" d="M1010.37,99.23l10.25-1.86a93.15,93.15,0,0,0,68.45-54.72,25.61,25.61,0,0,1,48.2,3.26l12.81,48a108.28,108.28,0,0,1-31.44,108l-21.18,19.33-91.28-16.3Z"/><path id="path172370-1" class="cls-1" d="M544.29,99.23l-10.47-1.86A93.14,93.14,0,0,1,465.6,42.65a25.61,25.61,0,0,0-48.2,3.26l-13,48a107.79,107.79,0,0,0,31.2,108l21.19,19.33,95.93-21.66Z"/><path id="path242812-0-4" class="cls-2" d="M899.78,892.5c66.69.21,133-13,196-39.19,34.73-19.44,57.3-61.1,58.21-107.41V443.69C1148.87,192.47,976.49-6.11,769,.14c-200.21,6-361.34,201.13-366.33,443.55V745.9c.91,46.31,23.48,88,58.21,107.41,63.11,26.13,129.36,39.37,196,39.19Z"/><path id="path123162-6-20-5-9" class="cls-3" d="M897.69,737.13V797l180,105.24C1141,939,1194.09,991.85,1207.36,1063.8a37.48,37.48,0,0,1-36.79,44.7H1067.66l-290.35-76.37L487,1108.5H384.05a37.49,37.49,0,0,1-36.79-44.7C361.46,991.85,413.62,939,477,902.21L656.93,797V737.13Z"/><path id="path453839-2-4" d="M1067.66,1108.5A153,153,0,0,0,823.88,986.26a67.3,67.3,0,0,1-91.51,0A153,153,0,0,0,487,1108.5Z"/><path id="path207743" class="cls-4" d="M656.93,737.13V783.7a215.39,215.39,0,0,0,240.76,0V737.13Z"/><path id="path238266-2-7" class="cls-3" d="M1080,397.42A788.28,788.28,0,0,1,858.34,287.75c-98.73,68.69-232.84,134.12-383,134.12A454.59,454.59,0,0,0,498.6,536.42c50.29,126,155.54,237.5,277.54,237.5s227.25-111.53,277.55-237.5A513.78,513.78,0,0,0,1080,397.42Z"/><path id="path52715-9" class="cls-5" d="M581.18,525.81a12.59,12.59,0,0,0-10.66,17s70,158.09,209.46,155.7S984,535.69,984,535.69a12.8,12.8,0,0,0-8.09-16.2,11.19,11.19,0,0,0-1.51-.4,12.57,12.57,0,0,0-10.18,3.66C862.65,628.05,695,631.13,589.63,529.63A11.93,11.93,0,0,0,581.18,525.81Z"/><path id="path251605-8" class="cls-4" d="M707.46,844.7a23.28,23.28,0,0,0-15.37,29.1l15.37,49.6a23.28,23.28,0,0,0,45.31-10.73,22.78,22.78,0,0,0-.84-2.78L737,860.3a23.29,23.29,0,0,0-28.89-15.81C707.91,844.55,707.68,844.62,707.46,844.7Z"/><path id="path251687-7" class="cls-4" d="M847.16,844.7a23.28,23.28,0,0,0-29.07,15.47l0,.13-14.9,49.59a23.28,23.28,0,1,0,43.63,16.28,24,24,0,0,0,.85-2.77l14.9-49.6A23.28,23.28,0,0,0,847.16,844.7Z"/></g><g id="Capa_2-2" data-name="Capa 2"><text class="cls-6" transform="translate(164.48 1493.17)">OkuMare</text><path class="cls-1" d="M45,1187.89c62.05,32,43.16,91.35,7.37,121.62-78,65.93-72.84,175.31,42.46,215.21-9.27-29-8.41-58.32,1.81-87.17-26.57-22.64-33.77-55.66,10.48-119.38,26.74-38.5,21.05-124-62.12-130.28Z"/><path class="cls-1" d="M1509.67,1182.53c-83.17,6.33-88.86,91.78-62.12,130.29,42,60.53,37.61,93.36,14.27,115.9,6.19,15.61,10.61,31.54,11.69,47.93a107.63,107.63,0,0,1-4.62,39.35c106.45-42.38,109.24-147.69,33.38-211.85-35.79-30.27-54.65-89.65,7.4-121.62Z"/></g></g></svg>